<mxfile host="drawio-plugin" modified="2023-02-07T19:34:21.663Z" agent="5.0 (Windows NT 6.2; Win64; x64) AppleWebKit/537.36 (KHTML, like Gecko) Chrome/89.0.4389.114 Safari/537.36" etag="Qb80gFOy8HwaBtRMEcPD" version="20.5.3" type="embed" pages="5"><diagram id="tEm3udfQRrp0tYSrLyY5" name="Definition"><mxGraphModel dx="596" dy="774" grid="1" gridSize="10" guides="1" tooltips="1" connect="1" arrows="1" fold="1" page="1" pageScale="1" pageWidth="827" pageHeight="1169" math="0" shadow="0"><root><mxCell id="0"/><mxCell id="1" parent="0"/><mxCell id="TwfJ6yVy9u_NWdyHtwg3-1" value="«interface»&lt;br&gt;&lt;b&gt;Definition&lt;/b&gt;&lt;br&gt;getType(): Type&lt;br&gt;getName(): String" style="html=1;" parent="1" vertex="1"><mxGeometry x="1186" y="250" width="110" height="60" as="geometry"/></mxCell><mxCell id="TwfJ6yVy9u_NWdyHtwg3-2" value="FunctionDefinition" style="swimlane;fontStyle=1;align=center;verticalAlign=top;childLayout=stackLayout;horizontal=1;startSize=34;horizontalStack=0;resizeParent=1;resizeParentMax=0;resizeLast=0;collapsible=1;marginBottom=0;" parent="1" vertex="1"><mxGeometry x="1071" y="410" width="160" height="30" as="geometry"/></mxCell><mxCell id="TwfJ6yVy9u_NWdyHtwg3-6" value="VariableDefinition" style="swimlane;fontStyle=1;align=center;verticalAlign=top;childLayout=stackLayout;horizontal=1;startSize=26;horizontalStack=0;resizeParent=1;resizeParentMax=0;resizeLast=0;collapsible=1;marginBottom=0;" parent="1" vertex="1"><mxGeometry x="1250" y="410" width="160" height="64" as="geometry"/></mxCell><mxCell id="2w1rQC-rwxfxJchrscSf-1" value="+ offset: int" style="text;html=1;align=center;verticalAlign=middle;resizable=0;points=[];autosize=1;strokeColor=none;fillColor=none;" parent="TwfJ6yVy9u_NWdyHtwg3-6" vertex="1"><mxGeometry y="26" width="160" height="30" as="geometry"/></mxCell><mxCell id="TwfJ6yVy9u_NWdyHtwg3-7" value="" style="line;strokeWidth=1;fillColor=none;align=left;verticalAlign=middle;spacingTop=-1;spacingLeft=3;spacingRight=3;rotatable=0;labelPosition=right;points=[];portConstraint=eastwest;strokeColor=inherit;" parent="TwfJ6yVy9u_NWdyHtwg3-6" vertex="1"><mxGeometry y="56" width="160" height="8" as="geometry"/></mxCell><mxCell id="TwfJ6yVy9u_NWdyHtwg3-8" value="" style="endArrow=block;dashed=1;endFill=0;endSize=12;html=1;rounded=0;strokeColor=default;entryX=0.5;entryY=1;entryDx=0;entryDy=0;exitX=0.5;exitY=0;exitDx=0;exitDy=0;" parent="1" source="TwfJ6yVy9u_NWdyHtwg3-2" target="TwfJ6yVy9u_NWdyHtwg3-1" edge="1"><mxGeometry width="160" relative="1" as="geometry"><mxPoint x="1170" y="350" as="sourcePoint"/><mxPoint x="1330" y="350" as="targetPoint"/><Array as="points"><mxPoint x="1150" y="360"/><mxPoint x="1241" y="360"/></Array></mxGeometry></mxCell><mxCell id="TwfJ6yVy9u_NWdyHtwg3-9" value="" style="endArrow=block;dashed=1;endFill=0;endSize=12;html=1;rounded=0;strokeColor=default;entryX=0.5;entryY=1;entryDx=0;entryDy=0;exitX=0.5;exitY=0;exitDx=0;exitDy=0;" parent="1" source="TwfJ6yVy9u_NWdyHtwg3-6" target="TwfJ6yVy9u_NWdyHtwg3-1" edge="1"><mxGeometry width="160" relative="1" as="geometry"><mxPoint x="1280" y="360" as="sourcePoint"/><mxPoint x="1440" y="360" as="targetPoint"/><Array as="points"><mxPoint x="1330" y="360"/><mxPoint x="1241" y="360"/></Array></mxGeometry></mxCell><mxCell id="TwfJ6yVy9u_NWdyHtwg3-10" value="«interface»&lt;br&gt;&lt;b&gt;Type&lt;/b&gt;" style="html=1;" parent="1" vertex="1"><mxGeometry x="1420" y="255" width="110" height="50" as="geometry"/></mxCell><mxCell id="TwfJ6yVy9u_NWdyHtwg3-11" value="1" style="endArrow=open;endSize=12;dashed=1;html=1;rounded=0;strokeColor=default;exitX=1;exitY=0.5;exitDx=0;exitDy=0;entryX=0;entryY=0.5;entryDx=0;entryDy=0;" parent="1" source="TwfJ6yVy9u_NWdyHtwg3-1" target="TwfJ6yVy9u_NWdyHtwg3-10" edge="1"><mxGeometry x="0.8387" y="20" width="160" relative="1" as="geometry"><mxPoint x="1330" y="330" as="sourcePoint"/><mxPoint x="1490" y="330" as="targetPoint"/><mxPoint as="offset"/></mxGeometry></mxCell><mxCell id="2w1rQC-rwxfxJchrscSf-2" value="«interface»&lt;br&gt;&lt;b&gt;Statement&lt;/b&gt;" style="html=1;" parent="1" vertex="1"><mxGeometry x="950" y="250" width="110" height="50" as="geometry"/></mxCell><mxCell id="2w1rQC-rwxfxJchrscSf-3" value="" style="endArrow=block;dashed=1;endFill=0;endSize=12;html=1;rounded=0;strokeColor=default;entryX=0.5;entryY=1;entryDx=0;entryDy=0;" parent="1" target="2w1rQC-rwxfxJchrscSf-2" edge="1"><mxGeometry width="160" relative="1" as="geometry"><mxPoint x="1250" y="460" as="sourcePoint"/><mxPoint x="1190" y="460" as="targetPoint"/><Array as="points"><mxPoint x="1005" y="460"/></Array></mxGeometry></mxCell><mxCell id="2w1rQC-rwxfxJchrscSf-4" value="«interface»&lt;br&gt;&lt;b&gt;AST Node&lt;/b&gt;&lt;br&gt;getLine(): int&lt;br&gt;getColumn(): int" style="html=1;" parent="1" vertex="1"><mxGeometry x="950" y="50" width="110" height="60" as="geometry"/></mxCell><mxCell id="2w1rQC-rwxfxJchrscSf-5" value="" style="endArrow=block;dashed=1;endFill=0;endSize=12;html=1;rounded=0;strokeColor=default;entryX=0.5;entryY=1;entryDx=0;entryDy=0;exitX=0.5;exitY=0;exitDx=0;exitDy=0;" parent="1" source="2w1rQC-rwxfxJchrscSf-2" target="2w1rQC-rwxfxJchrscSf-4" edge="1"><mxGeometry width="160" relative="1" as="geometry"><mxPoint x="980" y="180" as="sourcePoint"/><mxPoint x="1140" y="180" as="targetPoint"/></mxGeometry></mxCell><mxCell id="CHL5ta81QHTOjSYHyiZM-10" value="Program" style="swimlane;fontStyle=1;align=center;verticalAlign=top;childLayout=stackLayout;horizontal=1;startSize=26;horizontalStack=0;resizeParent=1;resizeParentMax=0;resizeLast=0;collapsible=1;marginBottom=0;" parent="1" vertex="1"><mxGeometry x="1161" y="63" width="160" height="34" as="geometry"/></mxCell><mxCell id="CHL5ta81QHTOjSYHyiZM-11" value="" style="line;strokeWidth=1;fillColor=none;align=left;verticalAlign=middle;spacingTop=-1;spacingLeft=3;spacingRight=3;rotatable=0;labelPosition=right;points=[];portConstraint=eastwest;strokeColor=inherit;" parent="CHL5ta81QHTOjSYHyiZM-10" vertex="1"><mxGeometry y="26" width="160" height="8" as="geometry"/></mxCell><mxCell id="CHL5ta81QHTOjSYHyiZM-12" value="" style="endArrow=block;dashed=1;endFill=0;endSize=12;html=1;rounded=0;entryX=0.5;entryY=1;entryDx=0;entryDy=0;exitX=0;exitY=0.5;exitDx=0;exitDy=0;" parent="1" source="TwfJ6yVy9u_NWdyHtwg3-1" target="2w1rQC-rwxfxJchrscSf-4" edge="1"><mxGeometry width="160" relative="1" as="geometry"><mxPoint x="1100" y="180" as="sourcePoint"/><mxPoint x="1260" y="180" as="targetPoint"/><Array as="points"><mxPoint x="1110" y="280"/><mxPoint x="1110" y="180"/><mxPoint x="1005" y="180"/></Array></mxGeometry></mxCell><mxCell id="CHL5ta81QHTOjSYHyiZM-13" value="*" style="endArrow=open;html=1;endSize=12;startArrow=diamondThin;startSize=14;startFill=1;edgeStyle=orthogonalEdgeStyle;align=left;verticalAlign=bottom;rounded=0;entryX=0.5;entryY=0;entryDx=0;entryDy=0;exitX=0.5;exitY=1;exitDx=0;exitDy=0;" parent="1" source="CHL5ta81QHTOjSYHyiZM-10" target="TwfJ6yVy9u_NWdyHtwg3-1" edge="1"><mxGeometry x="0.8693" y="9" relative="1" as="geometry"><mxPoint x="1170" y="180" as="sourcePoint"/><mxPoint x="1330" y="180" as="targetPoint"/><mxPoint as="offset"/></mxGeometry></mxCell><mxCell id="CHL5ta81QHTOjSYHyiZM-14" value="" style="endArrow=block;dashed=1;endFill=0;endSize=12;html=1;rounded=0;entryX=1;entryY=0.5;entryDx=0;entryDy=0;exitX=0;exitY=0.5;exitDx=0;exitDy=0;" parent="1" source="CHL5ta81QHTOjSYHyiZM-10" target="2w1rQC-rwxfxJchrscSf-4" edge="1"><mxGeometry width="160" relative="1" as="geometry"><mxPoint x="1180" y="170" as="sourcePoint"/><mxPoint x="1340" y="170" as="targetPoint"/></mxGeometry></mxCell><mxCell id="Rju1pcVPXZvaYqfDkQio-1" value="1...*" style="endArrow=open;html=1;endSize=12;startArrow=diamondThin;startSize=14;startFill=1;edgeStyle=orthogonalEdgeStyle;align=left;verticalAlign=bottom;rounded=0;exitX=0;exitY=0.5;exitDx=0;exitDy=0;entryX=0.75;entryY=1;entryDx=0;entryDy=0;" parent="1" source="TwfJ6yVy9u_NWdyHtwg3-2" target="2w1rQC-rwxfxJchrscSf-2" edge="1"><mxGeometry x="0.7553" y="-7" relative="1" as="geometry"><mxPoint x="1060" y="400" as="sourcePoint"/><mxPoint x="1220" y="400" as="targetPoint"/><mxPoint as="offset"/></mxGeometry></mxCell></root></mxGraphModel></diagram><diagram id="4c8TrQgIZwYKLNSwtNas" name="Expression"><mxGraphModel dx="1423" dy="1943" grid="1" gridSize="10" guides="1" tooltips="1" connect="1" arrows="1" fold="1" page="1" pageScale="1" pageWidth="827" pageHeight="1169" math="0" shadow="0"><root><mxCell id="0"/><mxCell id="1" parent="0"/><mxCell id="o3gh-eUroKLdvng0PE6j-1" value="«interface»&lt;br&gt;&lt;b&gt;Expression&lt;br&gt;&lt;/b&gt;" style="html=1;" parent="1" vertex="1"><mxGeometry x="339" y="380" width="110" height="50" as="geometry"/></mxCell><mxCell id="o3gh-eUroKLdvng0PE6j-7" value="VariableExpression&#10;" style="swimlane;fontStyle=1;align=center;verticalAlign=top;childLayout=stackLayout;horizontal=1;startSize=26;horizontalStack=0;resizeParent=1;resizeParentMax=0;resizeLast=0;collapsible=1;marginBottom=0;" parent="1" vertex="1"><mxGeometry x="399" y="500" width="160" height="60" as="geometry"/></mxCell><mxCell id="o3gh-eUroKLdvng0PE6j-8" value="+ name: string" style="text;strokeColor=none;fillColor=none;align=left;verticalAlign=top;spacingLeft=4;spacingRight=4;overflow=hidden;rotatable=0;points=[[0,0.5],[1,0.5]];portConstraint=eastwest;" parent="o3gh-eUroKLdvng0PE6j-7" vertex="1"><mxGeometry y="26" width="160" height="26" as="geometry"/></mxCell><mxCell id="o3gh-eUroKLdvng0PE6j-9" value="" style="line;strokeWidth=1;fillColor=none;align=left;verticalAlign=middle;spacingTop=-1;spacingLeft=3;spacingRight=3;rotatable=0;labelPosition=right;points=[];portConstraint=eastwest;strokeColor=inherit;" parent="o3gh-eUroKLdvng0PE6j-7" vertex="1"><mxGeometry y="52" width="160" height="8" as="geometry"/></mxCell><mxCell id="o3gh-eUroKLdvng0PE6j-12" value="UnaryMinusExpression" style="swimlane;fontStyle=1;align=center;verticalAlign=top;childLayout=stackLayout;horizontal=1;startSize=26;horizontalStack=0;resizeParent=1;resizeParentMax=0;resizeLast=0;collapsible=1;marginBottom=0;" parent="1" vertex="1"><mxGeometry x="110" y="500" width="160" height="34" as="geometry"/></mxCell><mxCell id="o3gh-eUroKLdvng0PE6j-13" value="" style="line;strokeWidth=1;fillColor=none;align=left;verticalAlign=middle;spacingTop=-1;spacingLeft=3;spacingRight=3;rotatable=0;labelPosition=right;points=[];portConstraint=eastwest;strokeColor=inherit;" parent="o3gh-eUroKLdvng0PE6j-12" vertex="1"><mxGeometry y="26" width="160" height="8" as="geometry"/></mxCell><mxCell id="o3gh-eUroKLdvng0PE6j-16" value="ArithmeticExpression" style="swimlane;fontStyle=1;align=center;verticalAlign=top;childLayout=stackLayout;horizontal=1;startSize=26;horizontalStack=0;resizeParent=1;resizeParentMax=0;resizeLast=0;collapsible=1;marginBottom=0;" parent="1" vertex="1"><mxGeometry x="599" y="500" width="160" height="60" as="geometry"/></mxCell><mxCell id="o3gh-eUroKLdvng0PE6j-17" value="+ operator: string&#10;" style="text;strokeColor=none;fillColor=none;align=left;verticalAlign=top;spacingLeft=4;spacingRight=4;overflow=hidden;rotatable=0;points=[[0,0.5],[1,0.5]];portConstraint=eastwest;" parent="o3gh-eUroKLdvng0PE6j-16" vertex="1"><mxGeometry y="26" width="160" height="26" as="geometry"/></mxCell><mxCell id="o3gh-eUroKLdvng0PE6j-18" value="" style="line;strokeWidth=1;fillColor=none;align=left;verticalAlign=middle;spacingTop=-1;spacingLeft=3;spacingRight=3;rotatable=0;labelPosition=right;points=[];portConstraint=eastwest;strokeColor=inherit;" parent="o3gh-eUroKLdvng0PE6j-16" vertex="1"><mxGeometry y="52" width="160" height="8" as="geometry"/></mxCell><mxCell id="o3gh-eUroKLdvng0PE6j-20" value="RealLiteralExpression" style="swimlane;fontStyle=1;align=center;verticalAlign=top;childLayout=stackLayout;horizontal=1;startSize=26;horizontalStack=0;resizeParent=1;resizeParentMax=0;resizeLast=0;collapsible=1;marginBottom=0;" parent="1" vertex="1"><mxGeometry x="120" y="270" width="160" height="52" as="geometry"/></mxCell><mxCell id="o3gh-eUroKLdvng0PE6j-21" value="+ value: double" style="text;strokeColor=none;fillColor=none;align=left;verticalAlign=top;spacingLeft=4;spacingRight=4;overflow=hidden;rotatable=0;points=[[0,0.5],[1,0.5]];portConstraint=eastwest;" parent="o3gh-eUroKLdvng0PE6j-20" vertex="1"><mxGeometry y="26" width="160" height="26" as="geometry"/></mxCell><mxCell id="o3gh-eUroKLdvng0PE6j-24" value="CharLiteralExpression&#10;" style="swimlane;fontStyle=1;align=center;verticalAlign=top;childLayout=stackLayout;horizontal=1;startSize=26;horizontalStack=0;resizeParent=1;resizeParentMax=0;resizeLast=0;collapsible=1;marginBottom=0;" parent="1" vertex="1"><mxGeometry x="120" y="190" width="160" height="52" as="geometry"/></mxCell><mxCell id="o3gh-eUroKLdvng0PE6j-25" value="+ value: char" style="text;strokeColor=none;fillColor=none;align=left;verticalAlign=top;spacingLeft=4;spacingRight=4;overflow=hidden;rotatable=0;points=[[0,0.5],[1,0.5]];portConstraint=eastwest;" parent="o3gh-eUroKLdvng0PE6j-24" vertex="1"><mxGeometry y="26" width="160" height="26" as="geometry"/></mxCell><mxCell id="o3gh-eUroKLdvng0PE6j-32" value="CastExpression&#10;" style="swimlane;fontStyle=1;align=center;verticalAlign=top;childLayout=stackLayout;horizontal=1;startSize=34;horizontalStack=0;resizeParent=1;resizeParentMax=0;resizeLast=0;collapsible=1;marginBottom=0;" parent="1" vertex="1"><mxGeometry x="499" y="156" width="160" height="34" as="geometry"/></mxCell><mxCell id="o3gh-eUroKLdvng0PE6j-52" value="NotExpression" style="swimlane;fontStyle=1;align=center;verticalAlign=top;childLayout=stackLayout;horizontal=1;startSize=34;horizontalStack=0;resizeParent=1;resizeParentMax=0;resizeLast=0;collapsible=1;marginBottom=0;" parent="1" vertex="1"><mxGeometry x="500" y="210" width="160" height="34" as="geometry"/></mxCell><mxCell id="o3gh-eUroKLdvng0PE6j-55" value="" style="endArrow=block;dashed=1;endFill=0;endSize=12;html=1;rounded=0;strokeColor=default;entryX=0.5;entryY=1;entryDx=0;entryDy=0;exitX=0.5;exitY=0;exitDx=0;exitDy=0;" parent="1" source="o3gh-eUroKLdvng0PE6j-12" target="o3gh-eUroKLdvng0PE6j-1" edge="1"><mxGeometry width="160" relative="1" as="geometry"><mxPoint x="220" y="460" as="sourcePoint"/><mxPoint x="380" y="460" as="targetPoint"/><Array as="points"><mxPoint x="190" y="460"/><mxPoint x="394" y="460"/></Array></mxGeometry></mxCell><mxCell id="o3gh-eUroKLdvng0PE6j-57" value="" style="endArrow=block;dashed=1;endFill=0;endSize=12;html=1;rounded=0;strokeColor=default;entryX=0.5;entryY=1;entryDx=0;entryDy=0;exitX=0.5;exitY=0;exitDx=0;exitDy=0;" parent="1" source="o3gh-eUroKLdvng0PE6j-7" target="o3gh-eUroKLdvng0PE6j-1" edge="1"><mxGeometry width="160" relative="1" as="geometry"><mxPoint x="470" y="470" as="sourcePoint"/><mxPoint x="630" y="470" as="targetPoint"/><Array as="points"><mxPoint x="480" y="460"/><mxPoint x="394" y="460"/></Array></mxGeometry></mxCell><mxCell id="o3gh-eUroKLdvng0PE6j-58" value="" style="endArrow=block;dashed=1;endFill=0;endSize=12;html=1;rounded=0;strokeColor=default;entryX=0.5;entryY=1;entryDx=0;entryDy=0;exitX=0.25;exitY=0;exitDx=0;exitDy=0;" parent="1" source="o3gh-eUroKLdvng0PE6j-16" target="o3gh-eUroKLdvng0PE6j-1" edge="1"><mxGeometry width="160" relative="1" as="geometry"><mxPoint x="500" y="460" as="sourcePoint"/><mxPoint x="660" y="460" as="targetPoint"/><Array as="points"><mxPoint x="640" y="460"/><mxPoint x="394" y="460"/></Array></mxGeometry></mxCell><mxCell id="o3gh-eUroKLdvng0PE6j-61" value="" style="endArrow=block;dashed=1;endFill=0;endSize=12;html=1;rounded=0;strokeColor=default;entryX=0.5;entryY=0;entryDx=0;entryDy=0;exitX=1;exitY=0.5;exitDx=0;exitDy=0;" parent="1" source="o3gh-eUroKLdvng0PE6j-21" target="o3gh-eUroKLdvng0PE6j-1" edge="1"><mxGeometry width="160" relative="1" as="geometry"><mxPoint x="280" y="300" as="sourcePoint"/><mxPoint x="440" y="300" as="targetPoint"/><Array as="points"><mxPoint x="394" y="310"/></Array></mxGeometry></mxCell><mxCell id="o3gh-eUroKLdvng0PE6j-62" value="" style="endArrow=block;dashed=1;endFill=0;endSize=12;html=1;rounded=0;strokeColor=default;entryX=0.5;entryY=0;entryDx=0;entryDy=0;exitX=1;exitY=0.5;exitDx=0;exitDy=0;" parent="1" source="o3gh-eUroKLdvng0PE6j-25" target="o3gh-eUroKLdvng0PE6j-1" edge="1"><mxGeometry width="160" relative="1" as="geometry"><mxPoint x="280" y="220" as="sourcePoint"/><mxPoint x="440" y="220" as="targetPoint"/><Array as="points"><mxPoint x="394" y="230"/></Array></mxGeometry></mxCell><mxCell id="o3gh-eUroKLdvng0PE6j-67" value="" style="endArrow=block;dashed=1;endFill=0;endSize=12;html=1;rounded=0;strokeColor=default;entryX=0.5;entryY=0;entryDx=0;entryDy=0;exitX=0;exitY=0.5;exitDx=0;exitDy=0;" parent="1" source="o3gh-eUroKLdvng0PE6j-52" target="o3gh-eUroKLdvng0PE6j-1" edge="1"><mxGeometry width="160" relative="1" as="geometry"><mxPoint x="340" y="270" as="sourcePoint"/><mxPoint x="500" y="270" as="targetPoint"/><Array as="points"><mxPoint x="394" y="227"/></Array></mxGeometry></mxCell><mxCell id="o3gh-eUroKLdvng0PE6j-68" value="" style="endArrow=block;dashed=1;endFill=0;endSize=12;html=1;rounded=0;strokeColor=default;exitX=0;exitY=0.5;exitDx=0;exitDy=0;entryX=0.5;entryY=0;entryDx=0;entryDy=0;" parent="1" source="o3gh-eUroKLdvng0PE6j-32" target="o3gh-eUroKLdvng0PE6j-1" edge="1"><mxGeometry width="160" relative="1" as="geometry"><mxPoint x="390" y="200" as="sourcePoint"/><mxPoint x="550" y="200" as="targetPoint"/><Array as="points"><mxPoint x="394" y="173"/></Array></mxGeometry></mxCell><mxCell id="o3gh-eUroKLdvng0PE6j-69" value="ArrayIndexExpression&#10;&#10;" style="swimlane;fontStyle=1;align=center;verticalAlign=top;childLayout=stackLayout;horizontal=1;startSize=26;horizontalStack=0;resizeParent=1;resizeParentMax=0;resizeLast=0;collapsible=1;marginBottom=0;" parent="1" vertex="1"><mxGeometry x="120" y="580" width="160" height="34" as="geometry"/></mxCell><mxCell id="o3gh-eUroKLdvng0PE6j-70" value="" style="line;strokeWidth=1;fillColor=none;align=left;verticalAlign=middle;spacingTop=-1;spacingLeft=3;spacingRight=3;rotatable=0;labelPosition=right;points=[];portConstraint=eastwest;strokeColor=inherit;" parent="o3gh-eUroKLdvng0PE6j-69" vertex="1"><mxGeometry y="26" width="160" height="8" as="geometry"/></mxCell><mxCell id="o3gh-eUroKLdvng0PE6j-75" value="" style="endArrow=block;dashed=1;endFill=0;endSize=12;html=1;rounded=0;strokeColor=default;exitX=1;exitY=0.5;exitDx=0;exitDy=0;entryX=0.5;entryY=0;entryDx=0;entryDy=0;" parent="1" target="o3gh-eUroKLdvng0PE6j-1" edge="1"><mxGeometry width="160" relative="1" as="geometry"><mxPoint x="280" y="157" as="sourcePoint"/><mxPoint x="450" y="90" as="targetPoint"/><Array as="points"><mxPoint x="394" y="157"/></Array></mxGeometry></mxCell><mxCell id="9c9g5L51k76yEXySF-gI-3" value="IntLiteralExpression&#10;" style="swimlane;fontStyle=1;align=center;verticalAlign=top;childLayout=stackLayout;horizontal=1;startSize=26;horizontalStack=0;resizeParent=1;resizeParentMax=0;resizeLast=0;collapsible=1;marginBottom=0;" parent="1" vertex="1"><mxGeometry x="120" y="120" width="160" height="52" as="geometry"/></mxCell><mxCell id="9c9g5L51k76yEXySF-gI-4" value="+ value: int" style="text;strokeColor=none;fillColor=none;align=left;verticalAlign=top;spacingLeft=4;spacingRight=4;overflow=hidden;rotatable=0;points=[[0,0.5],[1,0.5]];portConstraint=eastwest;" parent="9c9g5L51k76yEXySF-gI-3" vertex="1"><mxGeometry y="26" width="160" height="26" as="geometry"/></mxCell><mxCell id="9c9g5L51k76yEXySF-gI-9" value="" style="endArrow=block;dashed=1;endFill=0;endSize=12;html=1;rounded=0;strokeColor=default;entryX=0.5;entryY=1;entryDx=0;entryDy=0;exitX=0.5;exitY=0;exitDx=0;exitDy=0;" parent="1" source="o3gh-eUroKLdvng0PE6j-69" target="o3gh-eUroKLdvng0PE6j-1" edge="1"><mxGeometry width="160" relative="1" as="geometry"><mxPoint x="220" y="550" as="sourcePoint"/><mxPoint x="360" y="460" as="targetPoint"/><Array as="points"><mxPoint x="200" y="560"/><mxPoint x="290" y="560"/><mxPoint x="290" y="460"/><mxPoint x="394" y="460"/></Array></mxGeometry></mxCell><mxCell id="9c9g5L51k76yEXySF-gI-10" value="" style="endArrow=block;dashed=1;endFill=0;endSize=12;html=1;rounded=0;strokeColor=default;entryX=0.5;entryY=1;entryDx=0;entryDy=0;exitX=0.5;exitY=0;exitDx=0;exitDy=0;" parent="1" target="o3gh-eUroKLdvng0PE6j-1" edge="1"><mxGeometry width="160" relative="1" as="geometry"><mxPoint x="380" y="600" as="sourcePoint"/><mxPoint x="380" y="500" as="targetPoint"/><Array as="points"><mxPoint x="380" y="560"/><mxPoint x="290" y="560"/><mxPoint x="290" y="510"/><mxPoint x="290" y="460"/><mxPoint x="394" y="460"/></Array></mxGeometry></mxCell><mxCell id="9c9g5L51k76yEXySF-gI-11" value="1" style="endArrow=open;html=1;endSize=12;startArrow=diamondThin;startSize=14;startFill=1;edgeStyle=orthogonalEdgeStyle;align=left;verticalAlign=bottom;rounded=0;strokeColor=default;exitX=0.25;exitY=0;exitDx=0;exitDy=0;entryX=0;entryY=1;entryDx=0;entryDy=0;" parent="1" source="o3gh-eUroKLdvng0PE6j-12" target="o3gh-eUroKLdvng0PE6j-1" edge="1"><mxGeometry x="0.6988" relative="1" as="geometry"><mxPoint x="180" y="400" as="sourcePoint"/><mxPoint x="340" y="400" as="targetPoint"/><Array as="points"><mxPoint x="150" y="430"/></Array><mxPoint as="offset"/></mxGeometry></mxCell><mxCell id="Y5Ir5-E-Rbsl5gWK5vxm-1" value="1" style="endArrow=open;html=1;endSize=12;startArrow=diamondThin;startSize=14;startFill=1;edgeStyle=orthogonalEdgeStyle;align=left;verticalAlign=bottom;rounded=0;exitX=0.75;exitY=0;exitDx=0;exitDy=0;entryX=1;entryY=1;entryDx=0;entryDy=0;" parent="1" source="o3gh-eUroKLdvng0PE6j-16" target="o3gh-eUroKLdvng0PE6j-1" edge="1"><mxGeometry x="0.8765" relative="1" as="geometry"><mxPoint x="710" y="480" as="sourcePoint"/><mxPoint x="870" y="480" as="targetPoint"/><Array as="points"><mxPoint x="719" y="430"/></Array><mxPoint as="offset"/></mxGeometry></mxCell><mxCell id="Y5Ir5-E-Rbsl5gWK5vxm-2" value="1" style="endArrow=open;html=1;endSize=12;startArrow=diamondThin;startSize=14;startFill=1;edgeStyle=orthogonalEdgeStyle;align=left;verticalAlign=bottom;rounded=0;entryX=1;entryY=0.5;entryDx=0;entryDy=0;" parent="1" target="o3gh-eUroKLdvng0PE6j-1" edge="1"><mxGeometry x="0.9283" relative="1" as="geometry"><mxPoint x="660" y="230" as="sourcePoint"/><mxPoint x="820" y="230" as="targetPoint"/><Array as="points"><mxPoint x="760" y="230"/><mxPoint x="760" y="405"/></Array><mxPoint as="offset"/></mxGeometry></mxCell><mxCell id="Y5Ir5-E-Rbsl5gWK5vxm-5" value="1" style="endArrow=open;html=1;endSize=12;startArrow=diamondThin;startSize=14;startFill=1;edgeStyle=orthogonalEdgeStyle;align=left;verticalAlign=bottom;rounded=0;exitX=1;exitY=0.5;exitDx=0;exitDy=0;entryX=1;entryY=0.5;entryDx=0;entryDy=0;" parent="1" source="o3gh-eUroKLdvng0PE6j-32" target="o3gh-eUroKLdvng0PE6j-1" edge="1"><mxGeometry x="0.9348" relative="1" as="geometry"><mxPoint x="810" y="340" as="sourcePoint"/><mxPoint x="970" y="340" as="targetPoint"/><Array as="points"><mxPoint x="760" y="173"/><mxPoint x="760" y="405"/></Array><mxPoint as="offset"/></mxGeometry></mxCell><mxCell id="Y5Ir5-E-Rbsl5gWK5vxm-6" value="«interface»&lt;br&gt;&lt;b&gt;Type&lt;/b&gt;" style="html=1;" parent="1" vertex="1"><mxGeometry x="524" y="40" width="110" height="50" as="geometry"/></mxCell><mxCell id="Y5Ir5-E-Rbsl5gWK5vxm-7" value="1" style="endArrow=open;html=1;endSize=12;startArrow=diamondThin;startSize=14;startFill=1;edgeStyle=orthogonalEdgeStyle;align=left;verticalAlign=bottom;rounded=0;exitX=0.5;exitY=0;exitDx=0;exitDy=0;entryX=0.5;entryY=1;entryDx=0;entryDy=0;" parent="1" source="o3gh-eUroKLdvng0PE6j-32" target="Y5Ir5-E-Rbsl5gWK5vxm-6" edge="1"><mxGeometry x="0.3939" y="-10" relative="1" as="geometry"><mxPoint x="580" y="120" as="sourcePoint"/><mxPoint x="740" y="120" as="targetPoint"/><mxPoint as="offset"/></mxGeometry></mxCell><mxCell id="Y5Ir5-E-Rbsl5gWK5vxm-8" value="2" style="endArrow=open;html=1;endSize=12;startArrow=diamondThin;startSize=14;startFill=1;edgeStyle=orthogonalEdgeStyle;align=left;verticalAlign=bottom;rounded=0;exitX=0;exitY=0.5;exitDx=0;exitDy=0;entryX=0;entryY=0.5;entryDx=0;entryDy=0;" parent="1" source="o3gh-eUroKLdvng0PE6j-69" target="o3gh-eUroKLdvng0PE6j-1" edge="1"><mxGeometry x="0.8584" relative="1" as="geometry"><mxPoint x="90" y="710" as="sourcePoint"/><mxPoint x="250" y="710" as="targetPoint"/><Array as="points"><mxPoint x="50" y="597"/><mxPoint x="50" y="405"/></Array><mxPoint as="offset"/></mxGeometry></mxCell><mxCell id="Y5Ir5-E-Rbsl5gWK5vxm-13" value="FieldAccessExpression" style="swimlane;fontStyle=1;align=center;verticalAlign=top;childLayout=stackLayout;horizontal=1;startSize=26;horizontalStack=0;resizeParent=1;resizeParentMax=0;resizeLast=0;collapsible=1;marginBottom=0;" parent="1" vertex="1"><mxGeometry x="300" y="600" width="160" height="60" as="geometry"/></mxCell><mxCell id="Y5Ir5-E-Rbsl5gWK5vxm-14" value="+ name: string" style="text;strokeColor=none;fillColor=none;align=left;verticalAlign=top;spacingLeft=4;spacingRight=4;overflow=hidden;rotatable=0;points=[[0,0.5],[1,0.5]];portConstraint=eastwest;" parent="Y5Ir5-E-Rbsl5gWK5vxm-13" vertex="1"><mxGeometry y="26" width="160" height="26" as="geometry"/></mxCell><mxCell id="Y5Ir5-E-Rbsl5gWK5vxm-15" value="" style="line;strokeWidth=1;fillColor=none;align=left;verticalAlign=middle;spacingTop=-1;spacingLeft=3;spacingRight=3;rotatable=0;labelPosition=right;points=[];portConstraint=eastwest;strokeColor=inherit;" parent="Y5Ir5-E-Rbsl5gWK5vxm-13" vertex="1"><mxGeometry y="52" width="160" height="8" as="geometry"/></mxCell><mxCell id="Y5Ir5-E-Rbsl5gWK5vxm-16" value="1" style="endArrow=open;html=1;endSize=12;startArrow=diamondThin;startSize=14;startFill=1;edgeStyle=orthogonalEdgeStyle;align=left;verticalAlign=bottom;rounded=0;exitX=0;exitY=0.5;exitDx=0;exitDy=0;entryX=0;entryY=0;entryDx=0;entryDy=0;" parent="1" source="Y5Ir5-E-Rbsl5gWK5vxm-14" target="o3gh-eUroKLdvng0PE6j-1" edge="1"><mxGeometry x="0.9069" relative="1" as="geometry"><mxPoint x="210" y="690" as="sourcePoint"/><mxPoint x="370" y="690" as="targetPoint"/><Array as="points"><mxPoint x="30" y="639"/><mxPoint x="30" y="380"/></Array><mxPoint as="offset"/></mxGeometry></mxCell><mxCell id="Y5Ir5-E-Rbsl5gWK5vxm-21" value="ArithmeticComparisonExpression" style="swimlane;fontStyle=1;align=center;verticalAlign=top;childLayout=stackLayout;horizontal=1;startSize=26;horizontalStack=0;resizeParent=1;resizeParentMax=0;resizeLast=0;collapsible=1;marginBottom=0;" parent="1" vertex="1"><mxGeometry x="500" y="322" width="201" height="52" as="geometry"/></mxCell><mxCell id="Y5Ir5-E-Rbsl5gWK5vxm-22" value="+ operator: string" style="text;strokeColor=none;fillColor=none;align=left;verticalAlign=top;spacingLeft=4;spacingRight=4;overflow=hidden;rotatable=0;points=[[0,0.5],[1,0.5]];portConstraint=eastwest;" parent="Y5Ir5-E-Rbsl5gWK5vxm-21" vertex="1"><mxGeometry y="26" width="201" height="26" as="geometry"/></mxCell><mxCell id="Y5Ir5-E-Rbsl5gWK5vxm-32" value="LogicComparisonExpression" style="swimlane;fontStyle=1;align=center;verticalAlign=top;childLayout=stackLayout;horizontal=1;startSize=26;horizontalStack=0;resizeParent=1;resizeParentMax=0;resizeLast=0;collapsible=1;marginBottom=0;" parent="1" vertex="1"><mxGeometry x="500" y="260" width="201" height="52" as="geometry"/></mxCell><mxCell id="Y5Ir5-E-Rbsl5gWK5vxm-33" value="+ operator: string" style="text;strokeColor=none;fillColor=none;align=left;verticalAlign=top;spacingLeft=4;spacingRight=4;overflow=hidden;rotatable=0;points=[[0,0.5],[1,0.5]];portConstraint=eastwest;" parent="Y5Ir5-E-Rbsl5gWK5vxm-32" vertex="1"><mxGeometry y="26" width="201" height="26" as="geometry"/></mxCell><mxCell id="Y5Ir5-E-Rbsl5gWK5vxm-38" value="" style="endArrow=block;dashed=1;endFill=0;endSize=12;html=1;rounded=0;exitX=0;exitY=0.5;exitDx=0;exitDy=0;entryX=0.5;entryY=0;entryDx=0;entryDy=0;" parent="1" source="Y5Ir5-E-Rbsl5gWK5vxm-32" target="o3gh-eUroKLdvng0PE6j-1" edge="1"><mxGeometry width="160" relative="1" as="geometry"><mxPoint x="440" y="310" as="sourcePoint"/><mxPoint x="600" y="310" as="targetPoint"/><Array as="points"><mxPoint x="394" y="286"/></Array></mxGeometry></mxCell><mxCell id="Y5Ir5-E-Rbsl5gWK5vxm-40" value="" style="endArrow=block;dashed=1;endFill=0;endSize=12;html=1;rounded=0;entryX=0.5;entryY=0;entryDx=0;entryDy=0;exitX=0;exitY=0.5;exitDx=0;exitDy=0;" parent="1" source="Y5Ir5-E-Rbsl5gWK5vxm-21" target="o3gh-eUroKLdvng0PE6j-1" edge="1"><mxGeometry width="160" relative="1" as="geometry"><mxPoint x="430" y="340" as="sourcePoint"/><mxPoint x="590" y="340" as="targetPoint"/><Array as="points"><mxPoint x="394" y="348"/></Array></mxGeometry></mxCell><mxCell id="Y5Ir5-E-Rbsl5gWK5vxm-41" value="1" style="endArrow=open;html=1;endSize=12;startArrow=diamondThin;startSize=14;startFill=1;edgeStyle=orthogonalEdgeStyle;align=left;verticalAlign=bottom;rounded=0;entryX=1;entryY=0;entryDx=0;entryDy=0;" parent="1" target="o3gh-eUroKLdvng0PE6j-1" edge="1"><mxGeometry x="0.9003" relative="1" as="geometry"><mxPoint x="700" y="290" as="sourcePoint"/><mxPoint x="860" y="290" as="targetPoint"/><Array as="points"><mxPoint x="740" y="290"/><mxPoint x="740" y="380"/></Array><mxPoint as="offset"/></mxGeometry></mxCell><mxCell id="Y5Ir5-E-Rbsl5gWK5vxm-42" value="1" style="endArrow=open;html=1;endSize=12;startArrow=diamondThin;startSize=14;startFill=1;edgeStyle=orthogonalEdgeStyle;align=left;verticalAlign=bottom;rounded=0;" parent="1" edge="1"><mxGeometry x="-1" y="3" relative="1" as="geometry"><mxPoint x="700" y="350" as="sourcePoint"/><mxPoint x="450" y="380" as="targetPoint"/><Array as="points"><mxPoint x="740" y="350"/><mxPoint x="740" y="380"/></Array></mxGeometry></mxCell><mxCell id="Y5Ir5-E-Rbsl5gWK5vxm-43" value="FunctionInvocationExpression" style="swimlane;fontStyle=1;align=center;verticalAlign=top;childLayout=stackLayout;horizontal=1;startSize=52;horizontalStack=0;resizeParent=1;resizeParentMax=0;resizeLast=0;collapsible=1;marginBottom=0;" parent="1" vertex="1"><mxGeometry x="120" y="50" width="190" height="30" as="geometry"/></mxCell><mxCell id="Y5Ir5-E-Rbsl5gWK5vxm-48" value="" style="endArrow=block;dashed=1;endFill=0;endSize=12;html=1;rounded=0;exitX=1;exitY=0.5;exitDx=0;exitDy=0;entryX=0.5;entryY=0;entryDx=0;entryDy=0;" parent="1" source="Y5Ir5-E-Rbsl5gWK5vxm-43" target="o3gh-eUroKLdvng0PE6j-1" edge="1"><mxGeometry width="160" relative="1" as="geometry"><mxPoint x="350" y="100" as="sourcePoint"/><mxPoint x="510" y="100" as="targetPoint"/><Array as="points"><mxPoint x="394" y="65"/></Array></mxGeometry></mxCell><mxCell id="Y5Ir5-E-Rbsl5gWK5vxm-49" value="1" style="endArrow=open;html=1;endSize=12;startArrow=diamondThin;startSize=14;startFill=1;edgeStyle=orthogonalEdgeStyle;align=left;verticalAlign=bottom;rounded=0;exitX=0.5;exitY=0;exitDx=0;exitDy=0;entryX=0.5;entryY=1;entryDx=0;entryDy=0;" parent="1" source="Y5Ir5-E-Rbsl5gWK5vxm-43" target="o3gh-eUroKLdvng0PE6j-7" edge="1"><mxGeometry x="0.9473" relative="1" as="geometry"><mxPoint x="300" y="30" as="sourcePoint"/><mxPoint x="460" y="30" as="targetPoint"/><Array as="points"><mxPoint x="215" y="10"/><mxPoint x="800" y="10"/><mxPoint x="800" y="590"/><mxPoint x="479" y="590"/></Array><mxPoint as="offset"/></mxGeometry></mxCell><mxCell id="Y5Ir5-E-Rbsl5gWK5vxm-50" value="1...*" style="endArrow=open;html=1;endSize=12;startArrow=diamondThin;startSize=14;startFill=1;edgeStyle=orthogonalEdgeStyle;align=left;verticalAlign=bottom;rounded=0;exitX=0;exitY=0.5;exitDx=0;exitDy=0;entryX=0.25;entryY=0;entryDx=0;entryDy=0;" parent="1" source="Y5Ir5-E-Rbsl5gWK5vxm-43" target="o3gh-eUroKLdvng0PE6j-1" edge="1"><mxGeometry x="0.7927" y="-10" relative="1" as="geometry"><mxPoint x="30" y="100" as="sourcePoint"/><mxPoint x="190" y="100" as="targetPoint"/><Array as="points"><mxPoint x="80" y="65"/><mxPoint x="80" y="340"/><mxPoint x="367" y="340"/></Array><mxPoint as="offset"/></mxGeometry></mxCell></root></mxGraphModel></diagram><diagram id="H9pCtL9pOI-8gFf5l4Q-" name="Statement"><mxGraphModel dx="2250" dy="774" grid="1" gridSize="10" guides="1" tooltips="1" connect="1" arrows="1" fold="1" page="1" pageScale="1" pageWidth="827" pageHeight="1169" math="0" shadow="0"><root><mxCell id="0"/><mxCell id="1" parent="0"/><mxCell id="MevRHEnkogqee-nWbXEE-1" value="«interface»&lt;br&gt;&lt;b&gt;Statement&lt;br&gt;&lt;/b&gt;" style="html=1;" parent="1" vertex="1"><mxGeometry x="360" y="310" width="110" height="50" as="geometry"/></mxCell><mxCell id="MevRHEnkogqee-nWbXEE-2" value="PrintStatement&#10;" style="swimlane;fontStyle=1;align=center;verticalAlign=top;childLayout=stackLayout;horizontal=1;startSize=34;horizontalStack=0;resizeParent=1;resizeParentMax=0;resizeLast=0;collapsible=1;marginBottom=0;" parent="1" vertex="1"><mxGeometry x="50" y="318" width="160" height="32" as="geometry"/></mxCell><mxCell id="MevRHEnkogqee-nWbXEE-6" value="ReadStatement&#10;" style="swimlane;fontStyle=1;align=center;verticalAlign=top;childLayout=stackLayout;horizontal=1;startSize=30;horizontalStack=0;resizeParent=1;resizeParentMax=0;resizeLast=0;collapsible=1;marginBottom=0;" parent="1" vertex="1"><mxGeometry x="50" y="380" width="160" height="30" as="geometry"/></mxCell><mxCell id="MevRHEnkogqee-nWbXEE-8" value="AssignmentStatement&#10;" style="swimlane;fontStyle=1;align=center;verticalAlign=top;childLayout=stackLayout;horizontal=1;startSize=34;horizontalStack=0;resizeParent=1;resizeParentMax=0;resizeLast=0;collapsible=1;marginBottom=0;" parent="1" vertex="1"><mxGeometry x="309" y="430" width="160" height="34" as="geometry"/></mxCell><mxCell id="MevRHEnkogqee-nWbXEE-10" value="IfElseStatement" style="swimlane;fontStyle=1;align=center;verticalAlign=top;childLayout=stackLayout;horizontal=1;startSize=34;horizontalStack=0;resizeParent=1;resizeParentMax=0;resizeLast=0;collapsible=1;marginBottom=0;" parent="1" vertex="1"><mxGeometry x="590" y="318" width="160" height="34" as="geometry"/></mxCell><mxCell id="MevRHEnkogqee-nWbXEE-12" value="WhileStatement" style="swimlane;fontStyle=1;align=center;verticalAlign=top;childLayout=stackLayout;horizontal=1;startSize=34;horizontalStack=0;resizeParent=1;resizeParentMax=0;resizeLast=0;collapsible=1;marginBottom=0;" parent="1" vertex="1"><mxGeometry x="590" y="266" width="160" height="34" as="geometry"/></mxCell><mxCell id="MevRHEnkogqee-nWbXEE-14" value="ReturnStatement&#10;" style="swimlane;fontStyle=1;align=center;verticalAlign=top;childLayout=stackLayout;horizontal=1;startSize=34;horizontalStack=0;resizeParent=1;resizeParentMax=0;resizeLast=0;collapsible=1;marginBottom=0;" parent="1" vertex="1"><mxGeometry x="590" y="216" width="160" height="34" as="geometry"/></mxCell><mxCell id="MevRHEnkogqee-nWbXEE-18" value="" style="endArrow=block;dashed=1;endFill=0;endSize=12;html=1;rounded=0;strokeColor=default;exitX=0.5;exitY=0;exitDx=0;exitDy=0;entryX=0.25;entryY=1;entryDx=0;entryDy=0;" parent="1" source="MevRHEnkogqee-nWbXEE-8" target="MevRHEnkogqee-nWbXEE-1" edge="1"><mxGeometry width="160" relative="1" as="geometry"><mxPoint x="410" y="410" as="sourcePoint"/><mxPoint x="570" y="410" as="targetPoint"/></mxGeometry></mxCell><mxCell id="5kmBhblhDHlLe5FP7Lf--2" value="«interface»&lt;br&gt;&lt;b&gt;Expression&lt;br&gt;&lt;/b&gt;" style="html=1;" parent="1" vertex="1"><mxGeometry x="359" y="550" width="110" height="50" as="geometry"/></mxCell><mxCell id="uxytpnTYPjNuWfMsePIt-1" value="2" style="endArrow=open;html=1;endSize=12;startArrow=diamondThin;startSize=14;startFill=1;edgeStyle=orthogonalEdgeStyle;align=left;verticalAlign=bottom;rounded=0;strokeColor=default;exitX=0.5;exitY=1;exitDx=0;exitDy=0;entryX=0.5;entryY=0;entryDx=0;entryDy=0;" parent="1" source="MevRHEnkogqee-nWbXEE-8" target="5kmBhblhDHlLe5FP7Lf--2" edge="1"><mxGeometry x="-0.3889" y="6" relative="1" as="geometry"><mxPoint x="410" y="510" as="sourcePoint"/><mxPoint x="570" y="510" as="targetPoint"/><mxPoint as="offset"/></mxGeometry></mxCell><mxCell id="uxytpnTYPjNuWfMsePIt-2" value="" style="endArrow=block;dashed=1;endFill=0;endSize=12;html=1;rounded=0;strokeColor=default;entryX=0;entryY=0.5;entryDx=0;entryDy=0;exitX=1;exitY=0.5;exitDx=0;exitDy=0;" parent="1" source="MevRHEnkogqee-nWbXEE-2" target="MevRHEnkogqee-nWbXEE-1" edge="1"><mxGeometry width="160" relative="1" as="geometry"><mxPoint x="170" y="350" as="sourcePoint"/><mxPoint x="330" y="350" as="targetPoint"/></mxGeometry></mxCell><mxCell id="uxytpnTYPjNuWfMsePIt-5" value="" style="endArrow=block;dashed=1;endFill=0;endSize=12;html=1;rounded=0;strokeColor=default;exitX=1;exitY=0.5;exitDx=0;exitDy=0;entryX=0;entryY=0.5;entryDx=0;entryDy=0;" parent="1" source="MevRHEnkogqee-nWbXEE-6" target="MevRHEnkogqee-nWbXEE-1" edge="1"><mxGeometry width="160" relative="1" as="geometry"><mxPoint x="230" y="400" as="sourcePoint"/><mxPoint x="390" y="400" as="targetPoint"/><Array as="points"><mxPoint x="280" y="395"/><mxPoint x="280" y="335"/></Array></mxGeometry></mxCell><mxCell id="uxytpnTYPjNuWfMsePIt-12" value="1" style="endArrow=open;html=1;endSize=12;startArrow=diamondThin;startSize=14;startFill=1;edgeStyle=orthogonalEdgeStyle;align=left;verticalAlign=bottom;rounded=0;strokeColor=default;exitX=1;exitY=0.5;exitDx=0;exitDy=0;entryX=1;entryY=0.5;entryDx=0;entryDy=0;" parent="1" source="MevRHEnkogqee-nWbXEE-14" target="5kmBhblhDHlLe5FP7Lf--2" edge="1"><mxGeometry x="-0.9718" y="7" relative="1" as="geometry"><mxPoint x="760" y="230" as="sourcePoint"/><mxPoint x="920" y="230" as="targetPoint"/><Array as="points"><mxPoint x="810" y="227"/><mxPoint x="810" y="575"/></Array><mxPoint as="offset"/></mxGeometry></mxCell><mxCell id="uxytpnTYPjNuWfMsePIt-13" value="FunctionInvocationStatement" style="swimlane;fontStyle=1;align=center;verticalAlign=top;childLayout=stackLayout;horizontal=1;startSize=34;horizontalStack=0;resizeParent=1;resizeParentMax=0;resizeLast=0;collapsible=1;marginBottom=0;" parent="1" vertex="1"><mxGeometry x="30" y="200" width="200" height="30" as="geometry"/></mxCell><mxCell id="uxytpnTYPjNuWfMsePIt-15" value="" style="endArrow=block;dashed=1;endFill=0;endSize=12;html=1;rounded=0;strokeColor=default;exitX=1;exitY=0.5;exitDx=0;exitDy=0;entryX=0.5;entryY=0;entryDx=0;entryDy=0;" parent="1" source="uxytpnTYPjNuWfMsePIt-13" target="MevRHEnkogqee-nWbXEE-1" edge="1"><mxGeometry width="160" relative="1" as="geometry"><mxPoint x="240" y="220" as="sourcePoint"/><mxPoint x="400" y="220" as="targetPoint"/><Array as="points"><mxPoint x="415" y="215"/></Array></mxGeometry></mxCell><mxCell id="W73W_hKIGeY5k2PeKa27-5" value="1" style="endArrow=open;html=1;endSize=12;startArrow=diamondThin;startSize=14;startFill=1;edgeStyle=orthogonalEdgeStyle;align=left;verticalAlign=bottom;rounded=0;entryX=0;entryY=0;entryDx=0;entryDy=0;exitX=0;exitY=0.5;exitDx=0;exitDy=0;" parent="1" source="MevRHEnkogqee-nWbXEE-6" target="5kmBhblhDHlLe5FP7Lf--2" edge="1"><mxGeometry x="0.9275" relative="1" as="geometry"><mxPoint x="150" y="510" as="sourcePoint"/><mxPoint x="310" y="510" as="targetPoint"/><Array as="points"><mxPoint x="20" y="395"/><mxPoint x="20" y="550"/></Array><mxPoint as="offset"/></mxGeometry></mxCell><mxCell id="W73W_hKIGeY5k2PeKa27-6" value="1" style="endArrow=open;html=1;endSize=12;startArrow=diamondThin;startSize=14;startFill=1;edgeStyle=orthogonalEdgeStyle;align=left;verticalAlign=bottom;rounded=0;exitX=0;exitY=0.5;exitDx=0;exitDy=0;entryX=0;entryY=0;entryDx=0;entryDy=0;" parent="1" source="MevRHEnkogqee-nWbXEE-2" target="5kmBhblhDHlLe5FP7Lf--2" edge="1"><mxGeometry x="0.935" relative="1" as="geometry"><mxPoint x="130" y="480" as="sourcePoint"/><mxPoint x="290" y="480" as="targetPoint"/><Array as="points"><mxPoint x="20" y="334"/><mxPoint x="20" y="550"/></Array><mxPoint as="offset"/></mxGeometry></mxCell><mxCell id="W73W_hKIGeY5k2PeKa27-8" value="" style="endArrow=block;dashed=1;endFill=0;endSize=12;html=1;rounded=0;exitX=0;exitY=0.5;exitDx=0;exitDy=0;" parent="1" source="uxytpnTYPjNuWfMsePIt-13" edge="1"><mxGeometry width="160" relative="1" as="geometry"><mxPoint x="200" y="600" as="sourcePoint"/><mxPoint x="360" y="600" as="targetPoint"/><Array as="points"><mxPoint x="-20" y="215"/><mxPoint x="-20" y="410"/><mxPoint x="-20" y="600"/></Array></mxGeometry></mxCell><mxCell id="W73W_hKIGeY5k2PeKa27-9" value="1...*" style="endArrow=open;html=1;endSize=12;startArrow=diamondThin;startSize=14;startFill=1;edgeStyle=orthogonalEdgeStyle;align=left;verticalAlign=bottom;rounded=0;exitX=0.5;exitY=1;exitDx=0;exitDy=0;" parent="1" source="uxytpnTYPjNuWfMsePIt-13" edge="1"><mxGeometry x="0.9286" relative="1" as="geometry"><mxPoint x="200" y="580" as="sourcePoint"/><mxPoint x="360" y="580" as="targetPoint"/><Array as="points"><mxPoint x="130" y="280"/><mxPoint y="280"/><mxPoint y="580"/></Array><mxPoint as="offset"/></mxGeometry></mxCell><mxCell id="W73W_hKIGeY5k2PeKa27-10" value="1" style="endArrow=open;html=1;endSize=12;startArrow=diamondThin;startSize=14;startFill=1;edgeStyle=orthogonalEdgeStyle;align=left;verticalAlign=bottom;rounded=0;exitX=1;exitY=0.5;exitDx=0;exitDy=0;entryX=1;entryY=0;entryDx=0;entryDy=0;" parent="1" source="MevRHEnkogqee-nWbXEE-10" target="5kmBhblhDHlLe5FP7Lf--2" edge="1"><mxGeometry x="0.9348" y="1" relative="1" as="geometry"><mxPoint x="660" y="470" as="sourcePoint"/><mxPoint x="820" y="470" as="targetPoint"/><Array as="points"><mxPoint x="790" y="335"/><mxPoint x="790" y="500"/><mxPoint x="469" y="500"/></Array><mxPoint as="offset"/></mxGeometry></mxCell><mxCell id="W73W_hKIGeY5k2PeKa27-11" value="" style="endArrow=block;dashed=1;endFill=0;endSize=12;html=1;rounded=0;exitX=0;exitY=0.5;exitDx=0;exitDy=0;entryX=1;entryY=0.5;entryDx=0;entryDy=0;" parent="1" source="MevRHEnkogqee-nWbXEE-10" target="MevRHEnkogqee-nWbXEE-1" edge="1"><mxGeometry width="160" relative="1" as="geometry"><mxPoint x="450" y="390" as="sourcePoint"/><mxPoint x="610" y="390" as="targetPoint"/></mxGeometry></mxCell><mxCell id="W73W_hKIGeY5k2PeKa27-12" value="" style="endArrow=block;dashed=1;endFill=0;endSize=12;html=1;rounded=0;entryX=1;entryY=0.5;entryDx=0;entryDy=0;exitX=0;exitY=0.5;exitDx=0;exitDy=0;" parent="1" source="MevRHEnkogqee-nWbXEE-12" target="MevRHEnkogqee-nWbXEE-1" edge="1"><mxGeometry width="160" relative="1" as="geometry"><mxPoint x="410" y="280" as="sourcePoint"/><mxPoint x="570" y="280" as="targetPoint"/><Array as="points"><mxPoint x="530" y="283"/><mxPoint x="530" y="335"/></Array></mxGeometry></mxCell><mxCell id="W73W_hKIGeY5k2PeKa27-13" value="" style="endArrow=block;dashed=1;endFill=0;endSize=12;html=1;rounded=0;exitX=0;exitY=0.5;exitDx=0;exitDy=0;entryX=1;entryY=0.5;entryDx=0;entryDy=0;" parent="1" source="MevRHEnkogqee-nWbXEE-14" target="MevRHEnkogqee-nWbXEE-1" edge="1"><mxGeometry width="160" relative="1" as="geometry"><mxPoint x="470" y="280" as="sourcePoint"/><mxPoint x="630" y="280" as="targetPoint"/><Array as="points"><mxPoint x="530" y="233"/><mxPoint x="530" y="335"/></Array></mxGeometry></mxCell><mxCell id="W73W_hKIGeY5k2PeKa27-14" value="1...*" style="endArrow=open;html=1;endSize=12;startArrow=diamondThin;startSize=14;startFill=1;edgeStyle=orthogonalEdgeStyle;align=left;verticalAlign=bottom;rounded=0;exitX=0;exitY=1;exitDx=0;exitDy=0;entryX=1;entryY=1;entryDx=0;entryDy=0;" parent="1" source="MevRHEnkogqee-nWbXEE-10" target="MevRHEnkogqee-nWbXEE-1" edge="1"><mxGeometry x="0.6489" y="-10" relative="1" as="geometry"><mxPoint x="570" y="420" as="sourcePoint"/><mxPoint x="730" y="420" as="targetPoint"/><Array as="points"><mxPoint x="590" y="390"/><mxPoint x="470" y="390"/></Array><mxPoint as="offset"/></mxGeometry></mxCell><mxCell id="W73W_hKIGeY5k2PeKa27-15" value="1...*" style="endArrow=open;html=1;endSize=12;startArrow=diamondThin;startSize=14;startFill=1;edgeStyle=orthogonalEdgeStyle;align=left;verticalAlign=bottom;rounded=0;exitX=0.25;exitY=1;exitDx=0;exitDy=0;entryX=0.75;entryY=1;entryDx=0;entryDy=0;" parent="1" source="MevRHEnkogqee-nWbXEE-10" target="MevRHEnkogqee-nWbXEE-1" edge="1"><mxGeometry x="0.8548" relative="1" as="geometry"><mxPoint x="600" y="430" as="sourcePoint"/><mxPoint x="760" y="430" as="targetPoint"/><Array as="points"><mxPoint x="630" y="400"/><mxPoint x="443" y="400"/></Array><mxPoint as="offset"/></mxGeometry></mxCell><mxCell id="W73W_hKIGeY5k2PeKa27-17" value="1" style="endArrow=open;html=1;endSize=12;startArrow=diamondThin;startSize=14;startFill=1;edgeStyle=orthogonalEdgeStyle;align=left;verticalAlign=bottom;rounded=0;exitX=1;exitY=0.5;exitDx=0;exitDy=0;entryX=1;entryY=0;entryDx=0;entryDy=0;" parent="1" source="MevRHEnkogqee-nWbXEE-12" target="5kmBhblhDHlLe5FP7Lf--2" edge="1"><mxGeometry x="0.9363" y="1" relative="1" as="geometry"><mxPoint x="880" y="330" as="sourcePoint"/><mxPoint x="1040" y="330" as="targetPoint"/><Array as="points"><mxPoint x="790" y="283"/><mxPoint x="790" y="500"/><mxPoint x="469" y="500"/></Array><mxPoint as="offset"/></mxGeometry></mxCell><mxCell id="W73W_hKIGeY5k2PeKa27-18" value="1...*" style="endArrow=open;html=1;endSize=12;startArrow=diamondThin;startSize=14;startFill=1;edgeStyle=orthogonalEdgeStyle;align=left;verticalAlign=bottom;rounded=0;exitX=1;exitY=0;exitDx=0;exitDy=0;entryX=0.5;entryY=1;entryDx=0;entryDy=0;" parent="1" source="MevRHEnkogqee-nWbXEE-12" target="MevRHEnkogqee-nWbXEE-1" edge="1"><mxGeometry x="0.9046" y="5" relative="1" as="geometry"><mxPoint x="670" y="420" as="sourcePoint"/><mxPoint x="440" y="420" as="targetPoint"/><Array as="points"><mxPoint x="790" y="266"/><mxPoint x="790" y="420"/><mxPoint x="415" y="420"/></Array><mxPoint as="offset"/></mxGeometry></mxCell><mxCell id="W73W_hKIGeY5k2PeKa27-19" value="WhileStatement body" style="text;html=1;align=center;verticalAlign=middle;resizable=0;points=[];autosize=1;strokeColor=none;fillColor=none;" parent="1" vertex="1"><mxGeometry x="520" y="410" width="140" height="30" as="geometry"/></mxCell></root></mxGraphModel></diagram><diagram id="MWHh3O_VyMg2z93Idyrp" name="Type"><mxGraphModel dx="596" dy="774" grid="1" gridSize="10" guides="1" tooltips="1" connect="1" arrows="1" fold="1" page="1" pageScale="1" pageWidth="827" pageHeight="1169" math="0" shadow="0"><root><mxCell id="0"/><mxCell id="1" parent="0"/><mxCell id="IwVtx_aWUmDkuCINq1Sh-1" value="«interface»&lt;br&gt;&lt;b&gt;Type&lt;br&gt;&lt;/b&gt;" style="html=1;" parent="1" vertex="1"><mxGeometry x="1186" y="250" width="110" height="50" as="geometry"/></mxCell><mxCell id="IwVtx_aWUmDkuCINq1Sh-17" value="ArrayType" style="swimlane;fontStyle=1;align=center;verticalAlign=top;childLayout=stackLayout;horizontal=1;startSize=26;horizontalStack=0;resizeParent=1;resizeParentMax=0;resizeLast=0;collapsible=1;marginBottom=0;" parent="1" vertex="1"><mxGeometry x="1380" y="150" width="160" height="56" as="geometry"/></mxCell><mxCell id="_MQG18tsvrrOydb5ttaD-2" value="+ size: int" style="text;html=1;align=center;verticalAlign=middle;resizable=0;points=[];autosize=1;strokeColor=none;fillColor=none;" parent="IwVtx_aWUmDkuCINq1Sh-17" vertex="1"><mxGeometry y="26" width="160" height="30" as="geometry"/></mxCell><mxCell id="IwVtx_aWUmDkuCINq1Sh-21" value="RecordType" style="swimlane;fontStyle=1;align=center;verticalAlign=top;childLayout=stackLayout;horizontal=1;startSize=26;horizontalStack=0;resizeParent=1;resizeParentMax=0;resizeLast=0;collapsible=1;marginBottom=0;" parent="1" vertex="1"><mxGeometry x="1380" y="300" width="160" height="34" as="geometry"/></mxCell><mxCell id="IwVtx_aWUmDkuCINq1Sh-22" value="" style="line;strokeWidth=1;fillColor=none;align=left;verticalAlign=middle;spacingTop=-1;spacingLeft=3;spacingRight=3;rotatable=0;labelPosition=right;points=[];portConstraint=eastwest;strokeColor=inherit;" parent="IwVtx_aWUmDkuCINq1Sh-21" vertex="1"><mxGeometry y="26" width="160" height="8" as="geometry"/></mxCell><mxCell id="IwVtx_aWUmDkuCINq1Sh-24" value="" style="endArrow=block;dashed=1;endFill=0;endSize=12;html=1;rounded=0;strokeColor=default;exitX=1;exitY=0.5;exitDx=0;exitDy=0;entryX=0;entryY=0.5;entryDx=0;entryDy=0;" parent="1" source="aPZciS8tslv_Cl-Zi2iI-3" target="IwVtx_aWUmDkuCINq1Sh-1" edge="1"><mxGeometry width="160" relative="1" as="geometry"><mxPoint x="1090" y="275" as="sourcePoint"/><mxPoint x="1190" y="275" as="targetPoint"/></mxGeometry></mxCell><mxCell id="IwVtx_aWUmDkuCINq1Sh-26" value="" style="endArrow=block;dashed=1;endFill=0;endSize=12;html=1;rounded=0;strokeColor=default;entryX=1;entryY=0.5;entryDx=0;entryDy=0;exitX=0.5;exitY=0;exitDx=0;exitDy=0;" parent="1" source="IwVtx_aWUmDkuCINq1Sh-21" target="IwVtx_aWUmDkuCINq1Sh-1" edge="1"><mxGeometry width="160" relative="1" as="geometry"><mxPoint x="1250" y="380" as="sourcePoint"/><mxPoint x="1410" y="380" as="targetPoint"/><Array as="points"><mxPoint x="1460" y="275"/></Array></mxGeometry></mxCell><mxCell id="IwVtx_aWUmDkuCINq1Sh-27" value="" style="endArrow=block;dashed=1;endFill=0;endSize=12;html=1;rounded=0;strokeColor=default;exitX=0.5;exitY=1;exitDx=0;exitDy=0;entryX=1;entryY=0.5;entryDx=0;entryDy=0;" parent="1" source="IwVtx_aWUmDkuCINq1Sh-17" target="IwVtx_aWUmDkuCINq1Sh-1" edge="1"><mxGeometry width="160" relative="1" as="geometry"><mxPoint x="1460" y="260" as="sourcePoint"/><mxPoint x="1620" y="260" as="targetPoint"/><Array as="points"><mxPoint x="1460" y="275"/></Array></mxGeometry></mxCell><mxCell id="IwVtx_aWUmDkuCINq1Sh-28" value="1...*" style="endArrow=open;html=1;endSize=12;startArrow=diamondThin;startSize=14;startFill=1;edgeStyle=orthogonalEdgeStyle;align=left;verticalAlign=bottom;rounded=0;strokeColor=default;exitX=0;exitY=0.5;exitDx=0;exitDy=0;entryX=0.5;entryY=0;entryDx=0;entryDy=0;" parent="1" source="IwVtx_aWUmDkuCINq1Sh-17" target="IwVtx_aWUmDkuCINq1Sh-1" edge="1"><mxGeometry x="-0.7156" y="-8" relative="1" as="geometry"><mxPoint x="1460" y="170" as="sourcePoint"/><mxPoint x="1620" y="170" as="targetPoint"/><mxPoint as="offset"/></mxGeometry></mxCell><mxCell id="IwVtx_aWUmDkuCINq1Sh-30" value="RecordField" style="swimlane;fontStyle=1;align=center;verticalAlign=top;childLayout=stackLayout;horizontal=1;startSize=26;horizontalStack=0;resizeParent=1;resizeParentMax=0;resizeLast=0;collapsible=1;marginBottom=0;" parent="1" vertex="1"><mxGeometry x="1380" y="400" width="160" height="56" as="geometry"/></mxCell><mxCell id="aPZciS8tslv_Cl-Zi2iI-7" value="+ name: string" style="text;html=1;align=center;verticalAlign=middle;resizable=0;points=[];autosize=1;strokeColor=none;fillColor=none;" parent="IwVtx_aWUmDkuCINq1Sh-30" vertex="1"><mxGeometry y="26" width="160" height="30" as="geometry"/></mxCell><mxCell id="IwVtx_aWUmDkuCINq1Sh-34" value="1...*" style="endArrow=open;html=1;endSize=12;startArrow=diamondThin;startSize=14;startFill=1;edgeStyle=orthogonalEdgeStyle;align=left;verticalAlign=bottom;rounded=0;strokeColor=default;exitX=0.5;exitY=1;exitDx=0;exitDy=0;entryX=0.5;entryY=0;entryDx=0;entryDy=0;" parent="1" source="IwVtx_aWUmDkuCINq1Sh-21" target="IwVtx_aWUmDkuCINq1Sh-30" edge="1"><mxGeometry x="-0.2121" y="10" relative="1" as="geometry"><mxPoint x="1450" y="380" as="sourcePoint"/><mxPoint x="1370" y="370" as="targetPoint"/><mxPoint as="offset"/></mxGeometry></mxCell><mxCell id="aPZciS8tslv_Cl-Zi2iI-2" value="IntType" style="html=1;" parent="1" vertex="1"><mxGeometry x="940" y="230" width="110" height="20" as="geometry"/></mxCell><mxCell id="aPZciS8tslv_Cl-Zi2iI-3" value="RealType" style="html=1;" parent="1" vertex="1"><mxGeometry x="940" y="265" width="110" height="20" as="geometry"/></mxCell><mxCell id="aPZciS8tslv_Cl-Zi2iI-4" value="CharType" style="html=1;" parent="1" vertex="1"><mxGeometry x="940" y="300" width="110" height="20" as="geometry"/></mxCell><mxCell id="aPZciS8tslv_Cl-Zi2iI-5" value="" style="endArrow=block;dashed=1;endFill=0;endSize=12;html=1;rounded=0;exitX=1;exitY=0.5;exitDx=0;exitDy=0;entryX=0;entryY=0.5;entryDx=0;entryDy=0;" parent="1" source="aPZciS8tslv_Cl-Zi2iI-4" target="IwVtx_aWUmDkuCINq1Sh-1" edge="1"><mxGeometry width="160" relative="1" as="geometry"><mxPoint x="1070" y="310" as="sourcePoint"/><mxPoint x="1230" y="310" as="targetPoint"/><Array as="points"><mxPoint x="1110" y="310"/><mxPoint x="1110" y="275"/></Array></mxGeometry></mxCell><mxCell id="aPZciS8tslv_Cl-Zi2iI-6" value="" style="endArrow=block;dashed=1;endFill=0;endSize=12;html=1;rounded=0;exitX=1;exitY=0.5;exitDx=0;exitDy=0;entryX=0;entryY=0.5;entryDx=0;entryDy=0;" parent="1" source="aPZciS8tslv_Cl-Zi2iI-2" target="IwVtx_aWUmDkuCINq1Sh-1" edge="1"><mxGeometry width="160" relative="1" as="geometry"><mxPoint x="1080" y="250" as="sourcePoint"/><mxPoint x="1240" y="250" as="targetPoint"/><Array as="points"><mxPoint x="1110" y="240"/><mxPoint x="1110" y="275"/></Array></mxGeometry></mxCell><mxCell id="aPZciS8tslv_Cl-Zi2iI-10" value="1" style="endArrow=open;html=1;endSize=12;startArrow=diamondThin;startSize=14;startFill=1;edgeStyle=orthogonalEdgeStyle;align=left;verticalAlign=bottom;rounded=0;entryX=0.5;entryY=1;entryDx=0;entryDy=0;" parent="1" source="IwVtx_aWUmDkuCINq1Sh-30" target="IwVtx_aWUmDkuCINq1Sh-1" edge="1"><mxGeometry x="0.8502" y="-9" relative="1" as="geometry"><mxPoint x="1270" y="360" as="sourcePoint"/><mxPoint x="1430" y="360" as="targetPoint"/><mxPoint as="offset"/></mxGeometry></mxCell><mxCell id="aPZciS8tslv_Cl-Zi2iI-12" value="VoidType" style="html=1;" parent="1" vertex="1"><mxGeometry x="940" y="200" width="110" height="20" as="geometry"/></mxCell><mxCell id="aPZciS8tslv_Cl-Zi2iI-13" value="" style="endArrow=block;dashed=1;endFill=0;endSize=12;html=1;rounded=0;exitX=1;exitY=0.5;exitDx=0;exitDy=0;entryX=0;entryY=0.5;entryDx=0;entryDy=0;" parent="1" source="aPZciS8tslv_Cl-Zi2iI-12" target="IwVtx_aWUmDkuCINq1Sh-1" edge="1"><mxGeometry width="160" relative="1" as="geometry"><mxPoint x="1060" y="220" as="sourcePoint"/><mxPoint x="1220" y="220" as="targetPoint"/><Array as="points"><mxPoint x="1110" y="210"/><mxPoint x="1110" y="275"/></Array></mxGeometry></mxCell><mxCell id="aPZciS8tslv_Cl-Zi2iI-14" value="FunctionType" style="html=1;" parent="1" vertex="1"><mxGeometry x="940" y="330" width="110" height="20" as="geometry"/></mxCell><mxCell id="aPZciS8tslv_Cl-Zi2iI-15" value="" style="endArrow=block;dashed=1;endFill=0;endSize=12;html=1;rounded=0;exitX=1;exitY=0.5;exitDx=0;exitDy=0;entryX=0;entryY=0.5;entryDx=0;entryDy=0;" parent="1" source="aPZciS8tslv_Cl-Zi2iI-14" target="IwVtx_aWUmDkuCINq1Sh-1" edge="1"><mxGeometry width="160" relative="1" as="geometry"><mxPoint x="1060" y="340" as="sourcePoint"/><mxPoint x="1220" y="340" as="targetPoint"/><Array as="points"><mxPoint x="1110" y="340"/><mxPoint x="1110" y="275"/></Array></mxGeometry></mxCell><mxCell id="aPZciS8tslv_Cl-Zi2iI-16" value="VariableDefinition" style="html=1;" parent="1" vertex="1"><mxGeometry x="940" y="426" width="110" height="24" as="geometry"/></mxCell><mxCell id="aPZciS8tslv_Cl-Zi2iI-17" value="1...*" style="endArrow=open;html=1;endSize=12;startArrow=diamondThin;startSize=14;startFill=1;edgeStyle=orthogonalEdgeStyle;align=left;verticalAlign=bottom;rounded=0;exitX=0.5;exitY=1;exitDx=0;exitDy=0;entryX=0.5;entryY=0;entryDx=0;entryDy=0;" parent="1" source="aPZciS8tslv_Cl-Zi2iI-14" target="aPZciS8tslv_Cl-Zi2iI-16" edge="1"><mxGeometry x="0.8421" y="5" relative="1" as="geometry"><mxPoint x="990" y="400" as="sourcePoint"/><mxPoint x="1150" y="400" as="targetPoint"/><mxPoint as="offset"/></mxGeometry></mxCell><mxCell id="aPZciS8tslv_Cl-Zi2iI-19" value="1" style="endArrow=open;html=1;endSize=12;startArrow=diamondThin;startSize=14;startFill=1;edgeStyle=orthogonalEdgeStyle;align=left;verticalAlign=bottom;rounded=0;entryX=0.25;entryY=1;entryDx=0;entryDy=0;exitX=0.75;exitY=1;exitDx=0;exitDy=0;" parent="1" source="aPZciS8tslv_Cl-Zi2iI-14" target="IwVtx_aWUmDkuCINq1Sh-1" edge="1"><mxGeometry x="0.8754" y="14" relative="1" as="geometry"><mxPoint x="1050" y="400" as="sourcePoint"/><mxPoint x="1210" y="400" as="targetPoint"/><Array as="points"><mxPoint x="1023" y="390"/><mxPoint x="1214" y="390"/></Array><mxPoint as="offset"/></mxGeometry></mxCell></root></mxGraphModel></diagram><diagram id="PoR1q_MBszZ1_PVzXNhh" name="All"><mxGraphModel dx="231" dy="125" grid="1" gridSize="10" guides="1" tooltips="1" connect="1" arrows="1" fold="1" page="1" pageScale="1" pageWidth="827" pageHeight="1169" math="0" shadow="0"><root><mxCell id="0"/><mxCell id="1" parent="0"/><mxCell id="PgP3i5rZBsftRHO_D7PK-1" value="«interface»&lt;br&gt;&lt;b&gt;Definition&lt;/b&gt;&lt;br&gt;getType(): Type&lt;br&gt;getName(): String" style="html=1;" parent="1" vertex="1"><mxGeometry x="386" y="230" width="110" height="60" as="geometry"/></mxCell><mxCell id="PgP3i5rZBsftRHO_D7PK-2" value="FunctionDefinition" style="swimlane;fontStyle=1;align=center;verticalAlign=top;childLayout=stackLayout;horizontal=1;startSize=26;horizontalStack=0;resizeParent=1;resizeParentMax=0;resizeLast=0;collapsible=1;marginBottom=0;" parent="1" vertex="1"><mxGeometry x="271" y="390" width="160" height="34" as="geometry"/></mxCell><mxCell id="PgP3i5rZBsftRHO_D7PK-3" value="" style="line;strokeWidth=1;fillColor=none;align=left;verticalAlign=middle;spacingTop=-1;spacingLeft=3;spacingRight=3;rotatable=0;labelPosition=right;points=[];portConstraint=eastwest;strokeColor=inherit;" parent="PgP3i5rZBsftRHO_D7PK-2" vertex="1"><mxGeometry y="26" width="160" height="8" as="geometry"/></mxCell><mxCell id="PgP3i5rZBsftRHO_D7PK-4" value="VariableDefinition" style="swimlane;fontStyle=1;align=center;verticalAlign=top;childLayout=stackLayout;horizontal=1;startSize=26;horizontalStack=0;resizeParent=1;resizeParentMax=0;resizeLast=0;collapsible=1;marginBottom=0;" parent="1" vertex="1"><mxGeometry x="450" y="390" width="160" height="56" as="geometry"/></mxCell><mxCell id="PgP3i5rZBsftRHO_D7PK-5" value="+ offset: int" style="text;html=1;align=center;verticalAlign=middle;resizable=0;points=[];autosize=1;strokeColor=none;fillColor=none;" parent="PgP3i5rZBsftRHO_D7PK-4" vertex="1"><mxGeometry y="26" width="160" height="30" as="geometry"/></mxCell><mxCell id="PgP3i5rZBsftRHO_D7PK-7" value="" style="endArrow=block;dashed=1;endFill=0;endSize=12;html=1;rounded=0;strokeColor=default;entryX=0.5;entryY=1;entryDx=0;entryDy=0;exitX=0.5;exitY=0;exitDx=0;exitDy=0;" parent="1" source="PgP3i5rZBsftRHO_D7PK-2" target="PgP3i5rZBsftRHO_D7PK-1" edge="1"><mxGeometry width="160" relative="1" as="geometry"><mxPoint x="370" y="330" as="sourcePoint"/><mxPoint x="530" y="330" as="targetPoint"/><Array as="points"><mxPoint x="350" y="340"/><mxPoint x="441" y="340"/></Array></mxGeometry></mxCell><mxCell id="PgP3i5rZBsftRHO_D7PK-8" value="" style="endArrow=block;dashed=1;endFill=0;endSize=12;html=1;rounded=0;strokeColor=default;entryX=0.5;entryY=1;entryDx=0;entryDy=0;exitX=0.5;exitY=0;exitDx=0;exitDy=0;" parent="1" source="PgP3i5rZBsftRHO_D7PK-4" target="PgP3i5rZBsftRHO_D7PK-1" edge="1"><mxGeometry width="160" relative="1" as="geometry"><mxPoint x="480" y="340" as="sourcePoint"/><mxPoint x="640" y="340" as="targetPoint"/><Array as="points"><mxPoint x="530" y="340"/><mxPoint x="441" y="340"/></Array></mxGeometry></mxCell><mxCell id="PgP3i5rZBsftRHO_D7PK-9" value="«interface»&lt;br&gt;&lt;b&gt;Type&lt;/b&gt;" style="html=1;" parent="1" vertex="1"><mxGeometry x="620" y="235" width="110" height="50" as="geometry"/></mxCell><mxCell id="PgP3i5rZBsftRHO_D7PK-10" value="1" style="endArrow=open;endSize=12;dashed=1;html=1;rounded=0;strokeColor=default;exitX=1;exitY=0.5;exitDx=0;exitDy=0;entryX=0;entryY=0.5;entryDx=0;entryDy=0;" parent="1" source="PgP3i5rZBsftRHO_D7PK-1" target="PgP3i5rZBsftRHO_D7PK-9" edge="1"><mxGeometry x="0.8387" y="20" width="160" relative="1" as="geometry"><mxPoint x="530" y="310" as="sourcePoint"/><mxPoint x="690" y="310" as="targetPoint"/><mxPoint as="offset"/></mxGeometry></mxCell><mxCell id="PgP3i5rZBsftRHO_D7PK-11" value="«interface»&lt;br&gt;&lt;b&gt;Statement&lt;/b&gt;" style="html=1;" parent="1" vertex="1"><mxGeometry x="150" y="230" width="110" height="50" as="geometry"/></mxCell><mxCell id="PgP3i5rZBsftRHO_D7PK-12" value="" style="endArrow=block;dashed=1;endFill=0;endSize=12;html=1;rounded=0;strokeColor=default;entryX=0.5;entryY=1;entryDx=0;entryDy=0;" parent="1" target="PgP3i5rZBsftRHO_D7PK-11" edge="1"><mxGeometry width="160" relative="1" as="geometry"><mxPoint x="450" y="440" as="sourcePoint"/><mxPoint x="390" y="440" as="targetPoint"/><Array as="points"><mxPoint x="205" y="440"/></Array></mxGeometry></mxCell><mxCell id="PgP3i5rZBsftRHO_D7PK-13" value="«interface»&lt;br&gt;&lt;b&gt;AST Node&lt;/b&gt;&lt;br&gt;getLine(): int&lt;br&gt;getColumn(): int" style="html=1;" parent="1" vertex="1"><mxGeometry x="150" y="30" width="110" height="60" as="geometry"/></mxCell><mxCell id="PgP3i5rZBsftRHO_D7PK-14" value="" style="endArrow=block;dashed=1;endFill=0;endSize=12;html=1;rounded=0;strokeColor=default;entryX=0.5;entryY=1;entryDx=0;entryDy=0;exitX=0.5;exitY=0;exitDx=0;exitDy=0;" parent="1" source="PgP3i5rZBsftRHO_D7PK-11" target="PgP3i5rZBsftRHO_D7PK-13" edge="1"><mxGeometry width="160" relative="1" as="geometry"><mxPoint x="180" y="160" as="sourcePoint"/><mxPoint x="340" y="160" as="targetPoint"/></mxGeometry></mxCell><mxCell id="PgP3i5rZBsftRHO_D7PK-15" value="Program" style="swimlane;fontStyle=1;align=center;verticalAlign=top;childLayout=stackLayout;horizontal=1;startSize=26;horizontalStack=0;resizeParent=1;resizeParentMax=0;resizeLast=0;collapsible=1;marginBottom=0;" parent="1" vertex="1"><mxGeometry x="361" y="43" width="160" height="34" as="geometry"/></mxCell><mxCell id="PgP3i5rZBsftRHO_D7PK-16" value="" style="line;strokeWidth=1;fillColor=none;align=left;verticalAlign=middle;spacingTop=-1;spacingLeft=3;spacingRight=3;rotatable=0;labelPosition=right;points=[];portConstraint=eastwest;strokeColor=inherit;" parent="PgP3i5rZBsftRHO_D7PK-15" vertex="1"><mxGeometry y="26" width="160" height="8" as="geometry"/></mxCell><mxCell id="PgP3i5rZBsftRHO_D7PK-17" value="" style="endArrow=block;dashed=1;endFill=0;endSize=12;html=1;rounded=0;entryX=0.5;entryY=1;entryDx=0;entryDy=0;exitX=0;exitY=0.5;exitDx=0;exitDy=0;" parent="1" source="PgP3i5rZBsftRHO_D7PK-1" target="PgP3i5rZBsftRHO_D7PK-13" edge="1"><mxGeometry width="160" relative="1" as="geometry"><mxPoint x="300" y="160" as="sourcePoint"/><mxPoint x="460" y="160" as="targetPoint"/><Array as="points"><mxPoint x="310" y="260"/><mxPoint x="310" y="160"/><mxPoint x="205" y="160"/></Array></mxGeometry></mxCell><mxCell id="PgP3i5rZBsftRHO_D7PK-18" value="*" style="endArrow=open;html=1;endSize=12;startArrow=diamondThin;startSize=14;startFill=1;edgeStyle=orthogonalEdgeStyle;align=left;verticalAlign=bottom;rounded=0;entryX=0.5;entryY=0;entryDx=0;entryDy=0;exitX=0.5;exitY=1;exitDx=0;exitDy=0;" parent="1" source="PgP3i5rZBsftRHO_D7PK-15" target="PgP3i5rZBsftRHO_D7PK-1" edge="1"><mxGeometry x="0.7386" y="9" relative="1" as="geometry"><mxPoint x="370" y="160" as="sourcePoint"/><mxPoint x="530" y="160" as="targetPoint"/><mxPoint as="offset"/></mxGeometry></mxCell><mxCell id="PgP3i5rZBsftRHO_D7PK-19" value="" style="endArrow=block;dashed=1;endFill=0;endSize=12;html=1;rounded=0;entryX=1;entryY=0.5;entryDx=0;entryDy=0;exitX=0;exitY=0.5;exitDx=0;exitDy=0;" parent="1" source="PgP3i5rZBsftRHO_D7PK-15" target="PgP3i5rZBsftRHO_D7PK-13" edge="1"><mxGeometry width="160" relative="1" as="geometry"><mxPoint x="380" y="150" as="sourcePoint"/><mxPoint x="540" y="150" as="targetPoint"/></mxGeometry></mxCell></root></mxGraphModel></diagram></mxfile>